<svg id="eDI2NgO9Ks61" xmlns="http://www.w3.org/2000/svg" xmlns:xlink="http://www.w3.org/1999/xlink"
    viewBox="0 0 150 149.999998" shape-rendering="geometricPrecision" text-rendering="geometricPrecision">
    <style>
        <![CDATA[
        #eDI2NgO9Ks62_to {
            animation: eDI2NgO9Ks62_to__to 3000ms linear infinite normal forwards
        }

        @keyframes eDI2NgO9Ks62_to__to {
            0% {
                transform: translate(25.726563px, 74.999999px);
                animation-timing-function: cubic-bezier(0.42, 0, 0.58, 1)
            }

            26.666667% {
                transform: translate(25.726562px, 49.243138px);
                animation-timing-function: cubic-bezier(0.42, 0, 0.58, 1)
            }

            56.666667% {
                transform: translate(25.726562px, 74.56931px)
            }

            100% {
                transform: translate(25.726562px, 74.56931px)
            }
        }

        #eDI2NgO9Ks622_to {
            animation: eDI2NgO9Ks622_to__to 3000ms linear infinite normal forwards
        }

        @keyframes eDI2NgO9Ks622_to__to {
            0% {
                transform: translate(75px, 74.999999px)
            }

            13.333333% {
                transform: translate(75px, 74.999999px);
                animation-timing-function: cubic-bezier(0.42, 0, 0.58, 1)
            }

            40% {
                transform: translate(75px, 49.243138px);
                animation-timing-function: cubic-bezier(0.42, 0, 0.58, 1)
            }

            70% {
                transform: translate(75px, 74.56931px)
            }

            100% {
                transform: translate(75px, 74.56931px)
            }
        }

        #eDI2NgO9Ks633_to {
            animation: eDI2NgO9Ks633_to__to 3000ms linear infinite normal forwards
        }

        @keyframes eDI2NgO9Ks633_to__to {
            0% {
                transform: translate(126px, 75px)
            }

            26.666667% {
                transform: translate(126px, 75px);
                animation-timing-function: cubic-bezier(0.42, 0, 0.58, 1)
            }

            53.333333% {
                transform: translate(126px, 49px);
                animation-timing-function: cubic-bezier(0.42, 0, 0.58, 1)
            }

            83.333333% {
                transform: translate(126px, 74px)
            }

            100% {
                transform: translate(126px, 74px)
            }
        }
        ]]>
    </style>
    <defs>
        <linearGradient id="eDI2NgO9Ks67-fill" x1="47.66992" y1="52.631263" x2="37.532977" y2="80.838338"
            spreadMethod="pad" gradientUnits="userSpaceOnUse" gradientTransform="translate(0 0)">
            <stop id="eDI2NgO9Ks67-fill-0" offset="0%" stop-color="#f97316" />

            <stop id="eDI2NgO9Ks67-fill-104" offset="100%" stop-color="#eab308" />
        </linearGradient>
        <linearGradient id="eDI2NgO9Ks616-fill" x1="45.98768" y1="71.352481" x2="22.33684" y2="112.009728"
            spreadMethod="pad" gradientUnits="userSpaceOnUse" gradientTransform="translate(0 0)">
            <stop id="eDI2NgO9Ks616-fill-0" offset="0%" stop-color="#f97316" />

            <stop id="eDI2NgO9Ks616-fill-108" offset="100%" stop-color="#eab308" />
        </linearGradient>
        <linearGradient id="eDI2NgO9Ks627-fill" x1="91.735903" y1="30.543633" x2="64.19169" y2="121.761044"
            spreadMethod="pad" gradientUnits="userSpaceOnUse" gradientTransform="translate(0 0)">
            <stop id="eDI2NgO9Ks627-fill-0" offset="0%" stop-color="#f97316" />

            <stop id="eDI2NgO9Ks627-fill-193" offset="100%" stop-color="#eab308" />
        </linearGradient>
        <linearGradient id="eDI2NgO9Ks638-fill" x1="125.539496" y1="74.81949" x2="114.66152" y2="50.1044"
            spreadMethod="pad" gradientUnits="userSpaceOnUse" gradientTransform="translate(0 0)">
            <stop id="eDI2NgO9Ks638-fill-0" offset="0%" stop-color="#eab308" />
            <stop id="eDI2NgO9Ks638-fill-123" offset="100%" stop-color="#f97316" />
        </linearGradient>
        <linearGradient id="eDI2NgO9Ks647-fill" x1="131.767341" y1="112.354262" x2="148.624098" y2="67.632151"
            spreadMethod="pad" gradientUnits="userSpaceOnUse" gradientTransform="translate(0 0)">
            <stop id="eDI2NgO9Ks647-fill-0" offset="0%" stop-color="#eab308" />
            <stop id="eDI2NgO9Ks647-fill-231" offset="100%" stop-color="#f97316" />
        </linearGradient>
    </defs>
    <g id="eDI2NgO9Ks62_to" transform="translate(25.726563,74.999999)">
        <g transform="translate(-25.726562,-74.202121)">
            <g clip-path="url(#eDI2NgO9Ks610)">
                <g>
                    <g clip-path="url(#eDI2NgO9Ks68)">
                        <g>
                            <path d="M20.261719,53.011719v21.621093h28.46875v-21.621093h-28.46875Zm0,0"
                                fill="url(#eDI2NgO9Ks67-fill)" />
                        </g>
                        <clipPath id="eDI2NgO9Ks68">
                            <path
                                d="M43.726562,54.882812c0,0,0,4.320313,0,4.320313s.902344.011719.902344.011719c.089844-.085938.179688-.171875.261719-.261719.078125.085937.148437.175781.214844.269531c0,0-.476563-.007812-.476563-.007812-.632812.605468-1.414062,1.113281-2.339844,1.523437c0,0-22.027343,9.847657-22.027343,9.847657s5.519531,2.46875,5.519531,2.46875s1.765625.789062,1.765625.789062s1.761719.789062,1.761719.789062s15.09375-6.746093,15.09375-6.746093c2.832031-1.261719,4.328125-3.460938,4.328125-6.363281c0-.773438-.132813-1.542969-.390625-2.261719c0-.003907,0-.007813,0-.011719c0,0-1.730469-6.238281-1.730469-6.238281s-2.882813,1.871093-2.882813,1.871093Zm0,0"
                                transform="translate(0 0.000001)" />
                        </clipPath>
                    </g>
                </g>
                <clipPath id="eDI2NgO9Ks610">
                    <path d="M20,53h29v22h-29v-22Zm0,0" />
                </clipPath>
            </g>
            <g clip-path="url(#eDI2NgO9Ks619)">
                <g>
                    <g clip-path="url(#eDI2NgO9Ks617)">
                        <g>
                            <path d="M2.851562,72.949219v27.726562h45.878907v-27.726562h-45.878907Zm0,0"
                                fill="url(#eDI2NgO9Ks616-fill)" />
                        </g>
                        <clipPath id="eDI2NgO9Ks617">
                            <path
                                d="M5.160156,80.644531c.011719.039063.023438.082031.035156.121094.730469,2.421875,2.570313,4.363281,5.496094,5.785156c0,0,27.878906,13.238281,27.878906,13.238281s.019532.007813.019532.007813c.96875.441406,2.011718.871094,3.222656.875.066406.003906.128906.003906.191406.003906c1.851563,0,3.546875-.664062,4.796875-1.882812c1.246094-1.210938,1.929688-2.875,1.929688-4.6875c0-.480469-.042969-.945313-.125-1.394531-.105469-.554688-.269531-1.085938-.496094-1.578126c0,0-2.222656-7.449218-2.222656-7.449218s-2.878907,3.167968-2.878907,3.167968s2.109376,1.976563,2.109376,1.976563.929687.867187.929687.867187c-.0625.148438-.132813.289063-.207031.425782-.023438.039062-.042969.078125-.066406.117187-.238282.425781-.527344.824219-.867188,1.1875-.070312.078125-.144531.148438-.21875.222657-1.246094,1.214843-2.945312,1.878906-4.792969,1.878906-.066406,0-.128906,0-.195312,0-1.207031-.003906-2.253907-.433594-3.21875-.875c0,0-.023438-.007813-.023438-.007813s-27.878906-13.238281-27.878906-13.238281c-.285156-.136719-.558594-.28125-.824219-.433594-.535156-.296875-1.027344-.617187-1.476562-.957031-.238282-.179687-.464844-.367187-.679688-.554687c0,0,.402344-3.28125.402344-3.28125s-3.148438-1.230469-3.148438-1.230469s2.308594,7.695312,2.308594,7.695312Zm0,0"
                                transform="translate(.000001 0)" />
                        </clipPath>
                    </g>
                </g>
                <clipPath id="eDI2NgO9Ks619">
                    <path d="M2,72h47v29h-47v-29Zm0,0" />
                </clipPath>
            </g>
            <path
                d="M46.617188,86.960938c0,1.8125-.683594,3.476562-1.929688,4.6875-1.246094,1.214843-2.945312,1.878906-4.792969,1.878906-.066406,0-.128906,0-.195312,0-1.207031-.003906-2.253907-.433594-3.21875-.875c0,0-.023438-.007813-.023438-.007813s-27.878906-13.238281-27.878906-13.238281c-3.882813-1.890625-5.855469-4.691406-5.855469-8.324219c0,0,0-.828125,0-.828125c0-3.628906,1.972656-6.429687,5.855469-8.320312c0,0,.011719-.007813.011719-.007813s27.8125-13.203125,27.8125-13.203125c1.21875-.703125,2.300781-.992187,3.710937-.992187c1.617188-.042969,3.242188.605469,4.460938,1.785156c1.296875,1.261719,2.042969,3.03125,2.042969,4.863281c0,2.902344-1.496094,5.101563-4.328126,6.359375c0,0-22.027343,9.847657-22.027343,9.847657s22.03125,9.847656,22.03125,9.847656c2.75,1.222656,4.324219,3.601562,4.324219,6.527344Zm0,0"
                fill="#fff" />
        </g>
    </g>
    <g id="eDI2NgO9Ks622_to" transform="translate(75,74.999999)">
        <g transform="translate(-75.789062,-75)">
            <g clip-path="url(#eDI2NgO9Ks630)">
                <g>
                    <g clip-path="url(#eDI2NgO9Ks628)">
                        <g>
                            <path d="M52.222656,33.285156v84.863282h48.589844v-84.863282h-48.589844Zm0,0"
                                fill="url(#eDI2NgO9Ks627-fill)" />
                        </g>
                        <clipPath id="eDI2NgO9Ks628">
                            <path
                                d="M93.550781,40.050781c0,0,1.921875-.015625,1.921875-.015625-.0625.207032-.140625.417969-.222656.632813-.042969.101562-.082031.203125-.125.304687c0,0-.027344.054688-.027344.054688s-32.332031,67.558594-32.332031,67.558594c-.894531,1.875-2.332031,3.089843-4.125,3.527343-.453125.113281-.933594.171875-1.429687.179688-.042969.003906-.082032.003906-.125.003906-.121094,0-.242188-.003906-.363282-.011719c0,0-.035156-2.535156-.035156-2.535156s-4.464844,0-4.464844,0s4.535156,5.511719,4.535156,5.511719c1.136719,1.71875,3.117188,2.886719,5.320313,2.886719c2.519531,0,4.535156-1.320313,5.679687-3.714844c0,0,32.332032-67.558594,32.332032-67.558594s.027344-.054688.027344-.054688c.460937-1.074218.695312-2.074218.695312-2.964843c0-1.449219-.546875-2.796875-1.441406-3.859375c0,0-5.820313-6.710938-5.820313-6.710938s0,6.765625,0,6.765625Zm0,0" />
                        </clipPath>
                    </g>
                </g>
                <clipPath id="eDI2NgO9Ks630">
                    <path d="M52,33h49v86h-49v-86Zm0,0" />
                </clipPath>
            </g>
            <path
                d="M95.820312,38.007812c0,.890626-.234374,1.886719-.695312,2.964844c0,0-.027344.054688-.027344.054688s-32.332031,67.558594-32.332031,67.558594c-1.144531,2.394531-3.160156,3.710937-5.679687,3.710937-3.425782,0-6.320313-2.820313-6.320313-6.152344c0-.894531.234375-1.890625.695313-2.964843c0,0,.027343-.054688.027343-.054688s32.328125-67.558594,32.328125-67.558594c1.144532-2.394531,3.164063-3.714844,5.683594-3.714844c3.425781,0,6.320312,2.820313,6.320312,6.15625Zm0,0"
                fill="#fff" />
        </g>
    </g>
    <g id="eDI2NgO9Ks633_to" transform="translate(126.923828,75)">
        <g transform="translate(-124.201172,-74.426578)">
            <g clip-path="url(#eDI2NgO9Ks641)">
                <g>
                    <g clip-path="url(#eDI2NgO9Ks639)">
                        <g>
                            <path d="M101.183594,56.035156v17.929688h26.296875v-17.929688h-26.296875Zm0,0"
                                fill="url(#eDI2NgO9Ks638-fill)" />
                        </g>
                        <clipPath id="eDI2NgO9Ks639">
                            <path
                                d="M103.578125,63.535156c0,.003906,0,.003906,0,.003906.5,2.125,1.945313,3.828126,4.128906,4.796876c0,0,12.589844,5.628906,12.589844,5.628906s1.761719-.789063,1.761719-.789063s1.765625-.789062,1.765625-.789062s3.65625-1.636719,3.65625-1.636719-21.183594-9.46875-21.183594-9.46875-.847656-.378906-.847656-.378906c-.171875-.078125-.34375-.15625-.507813-.242188-.378906-.203125-.734375-.425781-1.0625-.675781c0,0,.1875-2.21875.1875-2.21875s-2.882812-1.730469-2.882812-1.730469s2.394531,7.5,2.394531,7.5Zm0,0"
                                transform="translate(.000001 0)" />
                        </clipPath>
                    </g>
                </g>
                <clipPath id="eDI2NgO9Ks641">
                    <path d="M101,56h27v18h-27v-18Zm0,0" />
                </clipPath>
            </g>
            <g clip-path="url(#eDI2NgO9Ks650)">
                <g>
                    <g clip-path="url(#eDI2NgO9Ks648)">
                        <g>
                            <path d="M101.761719,67.125v33.917969h45.515625v-33.917969h-45.515625Zm0,0"
                                fill="url(#eDI2NgO9Ks647-fill)" />
                        </g>
                        <clipPath id="eDI2NgO9Ks648">
                            <path
                                d="M143.089844,71.875c0,0,1.726562,1.132812,1.726562,1.132812-.050781.238282-.113281.472657-.183594.699219c0,0-.71875,1.621094-.71875,1.621094-.960937,1.640625-2.546874,3.003906-4.75,4.078125c0,0-.011718.007812-.011718.007812s-27.8125,13.203126-27.8125,13.203126c-1.21875.699218-2.296875.988281-3.710938.992187-.050781,0-.101562,0-.152344,0-.378906,0-.757812-.035156-1.132812-.109375-.472656-.09375-.933594-.242188-1.375-.445312-.171875-.078126-.339844-.164063-.503906-.261719c0,0,.320312-1.042969.320312-1.042969s-3.023437-1.875-3.023437-1.875s1.769531,5.941406,1.769531,5.941406c.390625,1.261719.9375,2.511719,1.894531,3.441406c1.179688,1.140626,2.738281,1.785157,4.308594,1.785157.050781,0,.101563,0,.152344,0c1.410156-.003907,2.492187-.292969,3.710937-.992188c0,0,27.8125-13.207031,27.8125-13.207031s.011719-.003906.011719-.003906c3.886719-1.890625,5.855469-4.691406,5.855469-8.324219c0,0,0-.824219,0-.824219c0-1.296875-.300782-2.789062-.589844-3.941406c0,0-2.113281-6.46875-2.113281-6.46875s-.046875-.15625-.046875-.15625-1.4375,4.75-1.4375,4.75Zm0,0"
                                transform="translate(.000001 0.000001)" />
                        </clipPath>
                    </g>
                </g>
                <clipPath id="eDI2NgO9Ks650">
                    <path d="M101,67h47v35h-47v-35Zm0,0" />
                </clipPath>
            </g>
            <path
                d="M145.019531,70.253906c0,0,0,.828125,0,.828125c0,3.632813-1.96875,6.433594-5.855469,8.324219c0,0-.011718.007812-.011718.007812s-27.8125,13.203126-27.8125,13.203126c-1.21875.699218-2.296875.988281-3.710938.992187-.050781,0-.101562,0-.152344,0-1.566406,0-3.128906-.644531-4.304687-1.789063-1.300781-1.257812-2.046875-3.03125-2.046875-4.859374c0-2.902344,1.496094-5.105469,4.328125-6.363282c0,0,22.027344-9.847656,22.027344-9.847656s-22.03125-9.847656-22.03125-9.847656c-2.746094-1.21875-4.324219-3.597656-4.324219-6.523438c0-1.8125.683594-3.480468,1.929688-4.691406c1.292968-1.253906,3.0625-1.921875,4.988281-1.875c1.210937.003906,2.253906.433594,3.222656.871094c0,0,.019531.011718.019531.011718s27.878906,13.238282,27.878906,13.238282c3.886719,1.890625,5.855469,4.691406,5.855469,8.320312Zm0,0"
                fill="#fff" />
        </g>
    </g>
</svg>